<svg xmlns="http://www.w3.org/2000/svg" xmlns:xlink="http://www.w3.org/1999/xlink" viewBox="0 0 56 56"><defs><style>.cls-1{fill:url(#未命名的渐变_13);}.cls-2{fill:url(#未命名的渐变_13-2);}</style><linearGradient id="未命名的渐变_13" x1="47.8" y1="47.8" x2="8.2" y2="8.2" gradientUnits="userSpaceOnUse"><stop offset="0" stop-color="#1092f6"/><stop offset="1" stop-color="#04e5f9"/></linearGradient><linearGradient id="未命名的渐变_13-2" x1="38.32" y1="35.43" x2="17.55" y2="14.66" xlink:href="#未命名的渐变_13"/></defs><title>财务类</title><g id="图层_2" data-name="图层 2"><g id="图层_1-2" data-name="图层 1"><path class="cls-1" d="M28,0A28,28,0,1,0,56,28,28,28,0,0,0,28,0Zm0,52A24,24,0,1,1,52,28,24,24,0,0,1,28,52Z"/><path class="cls-2" d="M37,13.72H35.2a1.12,1.12,0,0,0-1,.59l-4.13,7.61c-1,1.82-1.62,3.12-2,3.93-.89-1.91-2.93-5.79-6.08-11.54a1.13,1.13,0,0,0-1-.59H19a1.13,1.13,0,0,0-1,1.69l6.68,11.47h-5A1.13,1.13,0,0,0,18.57,28v1.16a1.13,1.13,0,0,0,1.13,1.13h6.24v3.51H19.69a1.13,1.13,0,0,0-1.13,1.13v1.19a1.13,1.13,0,0,0,1.13,1.13h6.24v4.71a1.13,1.13,0,0,0,1.13,1.13H29a1.13,1.13,0,0,0,1.13-1.13V37.23h6a1.13,1.13,0,0,0,1.13-1.13V34.91a1.13,1.13,0,0,0-1.13-1.13h-6V30.28h6a1.13,1.13,0,0,0,1.13-1.13V28a1.13,1.13,0,0,0-1.13-1.12H31.27L38,15.41a1.13,1.13,0,0,0-1-1.7Z"/></g></g></svg>