<svg xmlns="http://www.w3.org/2000/svg" xmlns:xlink="http://www.w3.org/1999/xlink" viewBox="0 0 51.67 53.55"><defs><style>.cls-1{fill:url(#未命名的渐变_13);}.cls-2{fill:url(#未命名的渐变_13-2);}.cls-3{fill:url(#未命名的渐变_13-3);}</style><linearGradient id="未命名的渐变_13" x1="26" y1="14.55" x2="26" y2="14.55" gradientUnits="userSpaceOnUse"><stop offset="0" stop-color="#1092f6"/><stop offset="1" stop-color="#04e5f9"/></linearGradient><linearGradient id="未命名的渐变_13-2" x1="48.12" y1="47.75" x2="12.88" y2="12.52" xlink:href="#未命名的渐变_13"/><linearGradient id="未命名的渐变_13-3" x1="24.41" y1="59.96" x2="7.59" y2="43.14" xlink:href="#未命名的渐变_13"/></defs><title>法务类</title><g id="图层_2" data-name="图层 2"><g id="图层_1-2" data-name="图层 1"><path class="cls-1" d="M26,14.55"/><path class="cls-2" d="M50.71,40.76,30.36,21.85l1.38-1.38.19.19a3,3,0,0,0,4.24,0l4.09-4.09a3,3,0,0,0,0-4.24L28.79.85a3.07,3.07,0,0,0-4.24,0L20.45,4.94a3,3,0,0,0,0,4.24l.19.19L9.74,20.28l-.19-.19a3,3,0,0,0-4.24,0L1.22,24.18a3,3,0,0,0,0,4.24L12.69,39.9a3,3,0,0,0,4.24,0L21,35.8a3,3,0,0,0,0-4.24l-.19-.19L22.21,30,41.13,50.34a3,3,0,0,0,2.14,1h.05a3,3,0,0,0,2.12-.88l5.34-5.34a3,3,0,0,0-.08-4.32Zm-7.36,6.1L24.44,26.51a3,3,0,0,0-2.14-1h-.05a3,3,0,0,0-2.12.88L17.3,29.25a3,3,0,0,0,0,4.24l.19.19-2.68,2.68L4.75,26.3l2.68-2.68.19.19a3.07,3.07,0,0,0,4.24,0L24.18,11.5a3,3,0,0,0,0-4.24L24,7.06l2.68-2.68L36.73,14.44,34,17.12l-.19-.19a3.07,3.07,0,0,0-4.24,0l-2.82,2.82a3,3,0,0,0,.08,4.32L47.23,43Z"/><path class="cls-3" d="M30,49.55H2a2,2,0,0,0,0,4H30a2,2,0,0,0,0-4Z"/></g></g></svg>