<svg xmlns="http://www.w3.org/2000/svg" viewBox="0 0 19 19.83"><title>消息中心</title><g id="图层_2" data-name="图层 2"><g id="图层_1-2" data-name="图层 1"><path d="M9.5,17a21.27,21.27,0,0,1-9-1.86,1,1,0,0,1-.28-1.57A26.68,26.68,0,0,0,3.56,9.25a10.1,10.1,0,0,0,.66-3.1c0-.37.08-.73.13-1.06C4.66,3,7.32,1.44,9.5,1.44S14.34,3,14.65,5.09c0,.33.09.69.13,1.06a10.1,10.1,0,0,0,.66,3.1,26.68,26.68,0,0,0,3.29,4.32,1,1,0,0,1-.28,1.57A21.27,21.27,0,0,1,9.5,17ZM2.68,13.85A20.8,20.8,0,0,0,9.5,15a20.71,20.71,0,0,0,6.82-1.15,22.36,22.36,0,0,1-2.66-3.69,11.35,11.35,0,0,1-.87-3.79c0-.35-.08-.69-.12-1-.14-.92-1.79-1.94-3.17-1.94s-3,1-3.17,1.94c0,.31-.08.65-.12,1a11.35,11.35,0,0,1-.87,3.79A22.36,22.36,0,0,1,2.68,13.85Z"/><path d="M9.5,3.44a1,1,0,0,1-1-1V1a1,1,0,0,1,2,0V2.44A1,1,0,0,1,9.5,3.44Z"/><path d="M9.5,19.83A3.84,3.84,0,0,1,5.67,16a1,1,0,0,1,2,0,1.83,1.83,0,0,0,3.67,0,1,1,0,0,1,2,0A3.84,3.84,0,0,1,9.5,19.83Z"/></g></g></svg>