<svg xmlns="http://www.w3.org/2000/svg" xmlns:xlink="http://www.w3.org/1999/xlink" viewBox="0 0 49.16 49.5"><defs><style>.cls-1{fill:url(#未命名的渐变_13);}.cls-2{fill:url(#未命名的渐变_13-2);}.cls-3{fill:url(#未命名的渐变_13-3);}.cls-4{fill:url(#未命名的渐变_13-4);}.cls-5{fill:url(#未命名的渐变_13-5);}</style><linearGradient id="未命名的渐变_13" x1="40.12" y1="52.05" x2="9.2" y2="21.13" gradientUnits="userSpaceOnUse"><stop offset="0" stop-color="#1092f6"/><stop offset="1" stop-color="#04e5f9"/></linearGradient><linearGradient id="未命名的渐变_13-2" x1="25.52" y1="22.31" x2="2.48" y2="-0.72" xlink:href="#未命名的渐变_13"/><linearGradient id="未命名的渐变_13-3" x1="38.16" y1="21.66" x2="27.84" y2="11.34" xlink:href="#未命名的渐变_13"/><linearGradient id="未命名的渐变_13-4" x1="43.16" y1="21.66" x2="32.84" y2="11.34" xlink:href="#未命名的渐变_13"/><linearGradient id="未命名的渐变_13-5" x1="50.91" y1="22.91" x2="38.09" y2="10.09" xlink:href="#未命名的渐变_13"/></defs><title>办公室</title><g id="图层_2" data-name="图层 2"><g id="图层_1-2" data-name="图层 1"><path class="cls-1" d="M47.16,29h-45a2,2,0,0,0,0,4H5.47V47.5a2,2,0,0,0,4,0V33H39.84V47.5a2,2,0,0,0,4,0V33h3.31a2,2,0,0,0,0-4Z"/><path class="cls-2" d="M3,20.8h9V22H7a2,2,0,0,0,0,4H21a2,2,0,0,0,0-4H16V20.8h9a3,3,0,0,0,3-3V3a3,3,0,0,0-3-3H3A3,3,0,0,0,0,3V17.8A3,3,0,0,0,3,20.8ZM4,4H24V16.8H4Z"/><path class="cls-3" d="M33,26a2,2,0,0,0,2-2V9a2,2,0,0,0-4,0V24A2,2,0,0,0,33,26Z"/><path class="cls-4" d="M38,26a2,2,0,0,0,2-2V9a2,2,0,0,0-4,0V24A2,2,0,0,0,38,26Z"/><path class="cls-5" d="M45.1,24.63a2,2,0,0,0,3.79-1.26l-5-15A2,2,0,0,0,40.1,9.63Z"/></g></g></svg>