<svg xmlns="http://www.w3.org/2000/svg" xmlns:xlink="http://www.w3.org/1999/xlink" viewBox="0 0 48.9 52"><defs><style>.cls-1{fill:url(#未命名的渐变_13);}.cls-2{fill:url(#未命名的渐变_13-2);}.cls-3{fill:url(#未命名的渐变_13-3);}</style><linearGradient id="未命名的渐变_13" x1="49.56" y1="49.16" x2="3.03" y2="2.63" gradientUnits="userSpaceOnUse"><stop offset="0" stop-color="#1092f6"/><stop offset="1" stop-color="#04e5f9"/></linearGradient><linearGradient id="未命名的渐变_13-2" x1="43.21" y1="46.7" x2="25.59" y2="29.07" xlink:href="#未命名的渐变_13"/><linearGradient id="未命名的渐变_13-3" x1="43.21" y1="31.7" x2="25.59" y2="14.07" xlink:href="#未命名的渐变_13"/></defs><title>总包分包合同</title><g id="图层_2" data-name="图层 2"><g id="图层_1-2" data-name="图层 1"><path class="cls-1" d="M45.9,0H6.9a3,3,0,0,0-3,3v9.92H2a2,2,0,1,0,0,4H3.9V24H2a2,2,0,0,0,0,4H3.9v7H2a2,2,0,0,0,0,4H3.9V49a3,3,0,0,0,3,3h39a2,2,0,0,0,0-4H7.9V39h3a2,2,0,0,0,0-4h-3V28h3a2,2,0,0,0,0-4h-3V16.92h3a2,2,0,0,0,0-4h-3V4h37v7.4a2,2,0,0,0,4,0V3A3,3,0,0,0,45.9,0Z"/><path class="cls-2" d="M44.9,32h-21a3,3,0,0,0-3,3v5.78a3,3,0,0,0,3,3h21a3,3,0,0,0,3-3V35A3,3,0,0,0,44.9,32Zm-1,7.78h-19V36h19Z"/><path class="cls-3" d="M44.9,17h-21a3,3,0,0,0-3,3v5.78a3,3,0,0,0,3,3h21a3,3,0,0,0,3-3V20A3,3,0,0,0,44.9,17Zm-1,7.78h-19V21h19Z"/></g></g></svg>