<svg xmlns="http://www.w3.org/2000/svg" xmlns:xlink="http://www.w3.org/1999/xlink" viewBox="0 0 52.35 46.87"><defs><style>.cls-1{fill:url(#未命名的渐变_13);}.cls-2{fill:url(#未命名的渐变_13-2);}.cls-3{fill:url(#未命名的渐变_13-3);}.cls-4{fill:url(#未命名的渐变_13-4);}.cls-5{fill:url(#未命名的渐变_13-5);}</style><linearGradient id="未命名的渐变_13" x1="26.75" y1="18.52" x2="11.41" y2="3.18" gradientUnits="userSpaceOnUse"><stop offset="0" stop-color="#1092f6"/><stop offset="1" stop-color="#04e5f9"/></linearGradient><linearGradient id="未命名的渐变_13-2" x1="30.69" y1="52.67" x2="7.47" y2="29.45" xlink:href="#未命名的渐变_13"/><linearGradient id="未命名的渐变_13-3" x1="48.29" y1="15.76" x2="38.51" y2="5.98" xlink:href="#未命名的渐变_13"/><linearGradient id="未命名的渐变_13-4" x1="48.79" y1="28.31" x2="40.01" y2="19.53" xlink:href="#未命名的渐变_13"/><linearGradient id="未命名的渐变_13-5" x1="50.04" y1="40.11" x2="43.76" y2="33.83" xlink:href="#未命名的渐变_13"/></defs><title>人事类</title><g id="图层_2" data-name="图层 2"><g id="图层_1-2" data-name="图层 1"><path class="cls-1" d="M19.08,21.7A10.85,10.85,0,1,0,8.23,10.85,10.86,10.86,0,0,0,19.08,21.7Zm0-17.7a6.85,6.85,0,1,1-6.85,6.85A6.86,6.86,0,0,1,19.08,4Z"/><path class="cls-2" d="M19.08,25.77A19.08,19.08,0,0,0,0,43.9,2.83,2.83,0,0,0,.78,46a2.87,2.87,0,0,0,2.07.89H35.31A2.87,2.87,0,0,0,37.38,46a2.83,2.83,0,0,0,.77-2.08A19.08,19.08,0,0,0,19.08,25.77Zm-15,17.1a15.1,15.1,0,0,1,29.94,0Z"/><path class="cls-3" d="M36.45,12.87h13.9a2,2,0,0,0,0-4H36.45a2,2,0,0,0,0,4Z"/><path class="cls-4" d="M50.35,21.92H38.45a2,2,0,0,0,0,4h11.9a2,2,0,0,0,0-4Z"/><path class="cls-5" d="M50.35,35h-6.9a2,2,0,0,0,0,4h6.9a2,2,0,0,0,0-4Z"/></g></g></svg>