<svg xmlns="http://www.w3.org/2000/svg" xmlns:xlink="http://www.w3.org/1999/xlink" viewBox="0 0 53 49.93"><defs><style>.cls-1{fill:url(#未命名的渐变_13);}</style><linearGradient id="未命名的渐变_13" x1="42.99" y1="48.61" x2="4.48" y2="10.09" gradientUnits="userSpaceOnUse"><stop offset="0" stop-color="#1092f6"/><stop offset="1" stop-color="#04e5f9"/></linearGradient></defs><title>工程质安类</title><g id="图层_2" data-name="图层 2"><g id="图层_1-2" data-name="图层 1"><path class="cls-1" d="M50,27.75H47.17V17.4h.77a2,2,0,0,0,.5-.07l.12,0a2,2,0,0,0,.42-.19l.05,0a2,2,0,0,0,.38-.33l.08-.1A2,2,0,0,0,49.9,15c0-.06,0-.12-.05-.18s0-.13-.06-.19a2,2,0,0,0-.09-.18c0-.05-.05-.11-.09-.16l-.11-.14L49.36,14l-.14-.12-.15-.13a2,2,0,0,0-.35-.19L17.14.16A2,2,0,0,0,15,.54L.64,13.94a2,2,0,0,0,1.84,3.4A2,2,0,0,0,3,17.4H15.08v1.74H13.25a2,2,0,0,0-2,1.86L9.48,45.93H4.16a2,2,0,1,0,0,4H30a2,2,0,0,0,0-4H24.69L22.91,21a2,2,0,0,0-2-1.86H19.08V17.4H43.17V27.75H40.34a3,3,0,0,0-3,3v6.61a3,3,0,0,0,3,3H50a3,3,0,0,0,3-3V30.75A3,3,0,0,0,50,27.75Zm-35.43,3h5l.4,5.57H14.17Zm.29-4,.26-3.66H19l.26,3.66ZM13.49,45.93l.4-5.57h6.39l.4,5.57ZM7.07,13.4l8-7.47V13.4Zm12-8.07,19,8.07h-19ZM49,36.36H41.34V31.75H49Z"/></g></g></svg>