<svg xmlns="http://www.w3.org/2000/svg" xmlns:xlink="http://www.w3.org/1999/xlink" viewBox="0 0 51 41.5"><defs><style>.cls-1{fill:url(#未命名的渐变_13);}</style><linearGradient id="未命名的渐变_13" x1="47.75" y1="43" x2="3.25" y2="-1.5" gradientUnits="userSpaceOnUse"><stop offset="0" stop-color="#1092f6"/><stop offset="1" stop-color="#04e5f9"/></linearGradient></defs><title>介绍信及其他</title><g id="图层_2" data-name="图层 2"><g id="图层_1-2" data-name="图层 1"><path class="cls-1" d="M48,0H3A3,3,0,0,0,0,3V38.5a3,3,0,0,0,3,3H48a3,3,0,0,0,3-3V3A3,3,0,0,0,48,0ZM47,4V34.15L33.18,18.49l10.38-8a2,2,0,0,0-2.44-3.17L25.25,19.54,9.37,7.34a2,2,0,1,0-2.44,3.17l10.4,8L4,33.61V4ZM23.54,23.27a2.65,2.65,0,0,0,3.42,0l3-2.34L44.62,37.5H5.9L20.51,20.95Z"/></g></g></svg>