<svg xmlns="http://www.w3.org/2000/svg" xmlns:xlink="http://www.w3.org/1999/xlink" viewBox="0 0 47.83 50.99"><defs><style>.cls-1{fill:url(#未命名的渐变_13);}.cls-2{fill:url(#未命名的渐变_13-2);}.cls-3{fill:url(#未命名的渐变_13-3);}.cls-4{fill:url(#未命名的渐变_13-4);}.cls-5{fill:url(#未命名的渐变_13-5);}</style><linearGradient id="未命名的渐变_13" x1="23.64" y1="20.31" x2="12.86" y2="9.53" gradientUnits="userSpaceOnUse"><stop offset="0" stop-color="#1092f6"/><stop offset="1" stop-color="#04e5f9"/></linearGradient><linearGradient id="未命名的渐变_13-2" x1="20.64" y1="30.36" x2="11.86" y2="21.58" xlink:href="#未命名的渐变_13"/><linearGradient id="未命名的渐变_13-3" x1="15.39" y1="39.66" x2="10.11" y2="34.38" xlink:href="#未命名的渐变_13"/><linearGradient id="未命名的渐变_13-4" x1="45.8" y1="48.94" x2="-0.69" y2="2.45" xlink:href="#未命名的渐变_13"/><linearGradient id="未命名的渐变_13-5" x1="37" y1="35.29" x2="29.4" y2="27.69" xlink:href="#未命名的渐变_13"/></defs><title>补充协议</title><g id="图层_2" data-name="图层 2"><g id="图层_1-2" data-name="图层 1"><path class="cls-1" d="M28.2,14.92a2,2,0,0,0-2-2H10.3a2,2,0,1,0,0,4H26.2A2,2,0,0,0,28.2,14.92Z"/><path class="cls-2" d="M24.2,26a2,2,0,0,0-2-2H10.3a2,2,0,1,0,0,4H22.2A2,2,0,0,0,24.2,26Z"/><path class="cls-3" d="M10.3,35a2,2,0,1,0,0,4h4.9a2,2,0,1,0,0-4Z"/><path class="cls-4" d="M42.92,47H4V4H40.72v7.49a2,2,0,0,0,4,0V3a3,3,0,0,0-3-3H3A3,3,0,0,0,0,3V48a3,3,0,0,0,3,3H42.92a2,2,0,0,0,0-4Z"/><path class="cls-5" d="M47.25,22.21l-4.77-4.77a2,2,0,0,0-2.83,0L23.92,33.18a2,2,0,0,0-.48.78l-2.38,7.15a2,2,0,0,0,2.53,2.53l7.15-2.38a2,2,0,0,0,.78-.48L47.25,25A2,2,0,0,0,47.25,22.21ZM29,37.61l-2.91,1,1-2.91,14-14L43,23.63Z"/></g></g></svg>