<svg xmlns="http://www.w3.org/2000/svg" xmlns:xlink="http://www.w3.org/1999/xlink" viewBox="0 0 46.29 51.05"><defs><style>.cls-1{fill:url(#未命名的渐变_13);}.cls-2{fill:url(#未命名的渐变_13-2);}.cls-3{fill:url(#未命名的渐变_13-3);}</style><linearGradient id="未命名的渐变_13" x1="35.92" y1="26.79" x2="20.07" y2="10.94" gradientUnits="userSpaceOnUse"><stop offset="0" stop-color="#1092f6"/><stop offset="1" stop-color="#04e5f9"/></linearGradient><linearGradient id="未命名的渐变_13-2" x1="46.8" y1="39.78" x2="9.28" y2="2.27" xlink:href="#未命名的渐变_13"/><linearGradient id="未命名的渐变_13-3" x1="29.81" y1="58.07" x2="-8.52" y2="19.74" xlink:href="#未命名的渐变_13"/></defs><title>结算书</title><g id="图层_2" data-name="图层 2"><g id="图层_1-2" data-name="图层 1"><path class="cls-1" d="M25,19.91H21.88a1.15,1.15,0,0,0-1.15,1.15v.86a1.15,1.15,0,0,0,1.15,1.15h4.31v2H21.88a1.15,1.15,0,0,0-1.15,1.15v.89a1.15,1.15,0,0,0,1.15,1.15h4.31V31.4a1.15,1.15,0,0,0,1.15,1.15h1.41A1.15,1.15,0,0,0,29.9,31.4V28.22H34a1.15,1.15,0,0,0,1.15-1.15v-.89A1.15,1.15,0,0,0,34,25H29.9v-2H34a1.15,1.15,0,0,0,1.15-1.15v-.86A1.15,1.15,0,0,0,34,19.91H31l4.72-8a1.15,1.15,0,0,0-1-1.73H33.38a1.15,1.15,0,0,0-1,.6L29.3,16.4c-.52,1-.91,1.74-1.19,2.32-.76-1.56-2.15-4.18-4.22-8a1.15,1.15,0,0,0-1-.6H21.34a1.15,1.15,0,0,0-1,1.73Z"/><path class="cls-2" d="M43.29,0H12.79a3,3,0,0,0-3,3V39a3,3,0,0,0,3,3h30.5a3,3,0,0,0,3-3V3A3,3,0,0,0,43.29,0Zm-1,38H13.79V4h28.5Z"/><path class="cls-3" d="M36,47H4V12a2,2,0,0,0-4,0V48a3,3,0,0,0,3,3H36a2,2,0,0,0,0-4Z"/></g></g></svg>