<svg xmlns="http://www.w3.org/2000/svg" xmlns:xlink="http://www.w3.org/1999/xlink" viewBox="0 0 48.9 52"><defs><style>.cls-1{fill:url(#未命名的渐变_13);}.cls-2{fill:url(#未命名的渐变_13-2);}.cls-3{fill:url(#未命名的渐变_13-3);}</style><linearGradient id="未命名的渐变_13" x1="49.56" y1="49.16" x2="3.03" y2="2.63" gradientUnits="userSpaceOnUse"><stop offset="0" stop-color="#1092f6"/><stop offset="1" stop-color="#04e5f9"/></linearGradient><linearGradient id="未命名的渐变_13-2" x1="38.81" y1="22.85" x2="26.49" y2="10.53" xlink:href="#未命名的渐变_13"/><linearGradient id="未命名的渐变_13-3" x1="41.8" y1="48.27" x2="23.5" y2="29.96" xlink:href="#未命名的渐变_13"/></defs><title>供应商合同</title><g id="图层_2" data-name="图层 2"><g id="图层_1-2" data-name="图层 1"><path class="cls-1" d="M45.9,0H6.9a3,3,0,0,0-3,3v9.92H2a2,2,0,1,0,0,4H3.9V24H2a2,2,0,0,0,0,4H3.9v7H2a2,2,0,0,0,0,4H3.9V49a3,3,0,0,0,3,3h39a2,2,0,0,0,0-4H7.9V39h3a2,2,0,0,0,0-4h-3V28h3a2,2,0,0,0,0-4h-3V16.92h3a2,2,0,0,0,0-4h-3V4h37v7.4a2,2,0,0,0,4,0V3A3,3,0,0,0,45.9,0Z"/><path class="cls-2" d="M41.37,16.69a8.72,8.72,0,1,0-8.72,8.72A8.73,8.73,0,0,0,41.37,16.69Zm-13.44,0a4.72,4.72,0,1,1,4.72,4.72A4.72,4.72,0,0,1,27.93,16.69Z"/><path class="cls-3" d="M17.69,41.24a2.63,2.63,0,0,0,.72,1.94,2.66,2.66,0,0,0,1.92.82H45a2.66,2.66,0,0,0,1.92-.82,2.63,2.63,0,0,0,.72-1.94,15,15,0,0,0-29.93,0ZM32.65,31a11,11,0,0,1,10.8,9H21.85A11,11,0,0,1,32.65,31Z"/></g></g></svg>