<svg xmlns="http://www.w3.org/2000/svg" xmlns:xlink="http://www.w3.org/1999/xlink" viewBox="0 0 51.61 53.81"><defs><style>.cls-1{fill:url(#未命名的渐变_13);}.cls-2{fill:url(#未命名的渐变_13-2);}.cls-3{fill:url(#未命名的渐变_13-3);}</style><linearGradient id="未命名的渐变_13" x1="41.45" y1="22.89" x2="30.57" y2="12" gradientUnits="userSpaceOnUse"><stop offset="0" stop-color="#1092f6"/><stop offset="1" stop-color="#04e5f9"/></linearGradient><linearGradient id="未命名的渐变_13-2" x1="36.7" y1="40.26" x2="13.55" y2="17.11" xlink:href="#未命名的渐变_13"/><linearGradient id="未命名的渐变_13-3" x1="43.61" y1="46.69" x2="7.13" y2="10.21" xlink:href="#未命名的渐变_13"/></defs><title>项目投标</title><g id="图层_2" data-name="图层 2"><g id="图层_1-2" data-name="图层 1"><path class="cls-1" d="M26.52,22.29a2,2,0,1,0-4,.22l.39,6.91a2.69,2.69,0,0,0,.05.32A2,2,0,0,0,25.89,32l.21,0L33,30.8a2,2,0,1,0-.67-3.94l-2.52.43,14.34-18a2,2,0,0,0,.27-.48h.08l4.42-.75a2,2,0,1,0-.67-3.94l-2.74.46-.15-2.71a2,2,0,0,0-4,.22l.23,4.21a2,2,0,0,0-.6.5l-14.38,18Z"/><path class="cls-2" d="M28.27,15.89A2,2,0,0,0,29.06,12a16.37,16.37,0,1,0-3.28,32.41q.6,0,1.21,0A16.37,16.37,0,0,0,41.6,23.73a2,2,0,1,0-3.86,1,12.37,12.37,0,1,1-9.47-8.88Z"/><path class="cls-3" d="M48.88,16.49a2,2,0,1,0-3.58,1.79A21.79,21.79,0,1,1,34,7.82a2,2,0,0,0,1.51-3.71,25.8,25.8,0,1,0-9.77,49.69q.95,0,1.91-.07A25.8,25.8,0,0,0,48.88,16.49Z"/></g></g></svg>