<?xml version="1.0" encoding="UTF-8"?>
<svg width="192px" height="192px" viewBox="0 0 192 192" version="1.1" xmlns="http://www.w3.org/2000/svg" xmlns:xlink="http://www.w3.org/1999/xlink">
    <!-- Generator: Sketch 48.2 (47327) - http://www.bohemiancoding.com/sketch -->
    <title>加载插图</title>
    <desc>Created with Sketch.</desc>
    <defs>
        <filter x="0.0%" y="0.0%" width="100.4%" height="100.2%" filterUnits="objectBoundingBox" id="filter-1">
            <feOffset dx="0" dy="0" in="SourceAlpha" result="shadowOffsetOuter1"></feOffset>
            <feColorMatrix values="0 0 0 0 0.137254902   0 0 0 0 0.478431373   0 0 0 0 0.937254902  0 0 0 1 0" type="matrix" in="shadowOffsetOuter1" result="shadowMatrixOuter1"></feColorMatrix>
            <feMerge>
                <feMergeNode in="shadowMatrixOuter1"></feMergeNode>
                <feMergeNode in="SourceGraphic"></feMergeNode>
            </feMerge>
        </filter>
        <linearGradient x1="-5.87431497%" y1="100%" x2="69.2101688%" y2="-12.7828659%" id="linearGradient-2">
            <stop stop-color="#0A87EF" offset="0%"></stop>
            <stop stop-color="#0AB2F6" offset="100%"></stop>
        </linearGradient>
        <linearGradient x1="50%" y1="7.99570848%" x2="50%" y2="94.0289553%" id="linearGradient-3">
            <stop stop-color="#0D5DDD" offset="0%"></stop>
            <stop stop-color="#2877F1" offset="100%"></stop>
        </linearGradient>
        <polygon id="path-4" points="56.7296291 7.50509577 7.17590821 35.8933914 7.17590821 91.1730061 56.7296291 63.665969"></polygon>
        <linearGradient x1="-29.0619504%" y1="50%" x2="108.194377%" y2="50%" id="linearGradient-5">
            <stop stop-color="#0A87EF" offset="0%"></stop>
            <stop stop-color="#0AE5F6" offset="100%"></stop>
        </linearGradient>
        <linearGradient x1="8.09203502%" y1="57.6357355%" x2="108.907871%" y2="40.740481%" id="linearGradient-6">
            <stop stop-color="#0B8DEA" offset="0%"></stop>
            <stop stop-color="#0C93EB" offset="100%"></stop>
        </linearGradient>
        <path d="M17.9227684,100.788712 C17.700896,100.922505 17.3133155,100.906024 17.0566305,100.751385 L13.3432852,98.5122796 C13.0870644,98.3576412 13.0592143,98.123987 13.2810867,97.9901933 L16.4968437,96.051154 C16.7191803,95.9173603 17.1067607,95.9338422 17.3629815,96.0884805 L21.0763269,98.3275861 C21.3330119,98.4822245 21.360862,98.7158787 21.1385254,98.8496724 L17.9227684,100.788712 Z M22.2073204,92.7721494 C22.4291928,92.6383599 22.8167732,92.6548412 23.0734582,92.8099595 L26.7868036,95.0485113 C27.0430244,95.2031449 27.0708745,95.4372766 26.8490021,95.5705815 L23.633245,97.5095608 C23.4109085,97.6438352 23.0233281,97.6268691 22.7671072,97.4722355 L19.0537619,95.2336838 C18.7970769,95.0785654 18.7692268,94.8449184 18.9915633,94.7111288 L22.2073204,92.7721494 Z M28.5272985,94.2308021 C28.3054261,94.3645904 27.9178457,94.3481092 27.6611607,94.193477 L23.9478153,91.9544612 C23.6915945,91.799829 23.6637444,91.5656994 23.8856168,91.4323957 L27.1013739,89.4934342 C27.3237104,89.3591611 27.7112909,89.376127 27.9675117,89.5307592 L31.680857,91.7697751 C31.937542,91.9244072 31.9653921,92.1580521 31.7430556,92.2918405 L28.5272985,94.2308021 Z M34.2377107,91.7715846 C34.0153699,91.9053729 33.627782,91.8888918 33.3715563,91.7342596 L29.6581398,89.4952437 C29.4019141,89.3406115 29.3735992,89.1064819 29.5959401,88.9731783 L32.8117588,87.0342167 C33.0336354,86.8999436 33.4216874,86.9169095 33.6779132,87.0715417 L37.3913297,89.3105576 C37.6475554,89.4651898 37.675406,89.6988346 37.4535294,89.832623 L34.2377107,91.7715846 Z M39.9475617,88.4928324 C39.7256894,88.6266265 39.3381089,88.6096598 39.0814239,88.4550211 L35.3680786,86.2163951 C35.1118577,86.0617564 35.0840077,85.8276168 35.30588,85.6943076 L38.5216371,83.7552639 C38.7439737,83.6209851 39.1315541,83.6379517 39.3877749,83.7925905 L43.1011203,86.0312164 C43.3578053,86.1858552 43.3856554,86.4199947 43.1633188,86.5537887 L39.9475617,88.4928324 Z M45.6577712,85.2138758 C45.4354398,85.3476698 45.0478684,85.3307032 44.7916535,85.1760644 L41.0783941,82.9374385 C40.8221792,82.7827997 40.7938655,82.5486602 41.016197,82.415351 L44.2318796,80.4763072 C44.454211,80.3420285 44.8417825,80.3589951 45.0979974,80.5136338 L48.8112568,82.7522598 C49.0679359,82.9068985 49.0957853,83.1410381 48.8734539,83.2748321 L45.6577712,85.2138758 Z M54.7468467,73.917873 C54.9733412,73.7842504 55.3681698,73.8011953 55.6291822,73.9556359 L59.4119707,76.1913945 C59.6729831,76.3458352 59.7018269,76.5796748 59.4753324,76.7128133 L50.6420483,81.9352317 C50.4155538,82.0683702 50.0207253,82.0519094 49.7597129,81.8974687 L45.9769243,79.661226 C45.7154391,79.5067853 45.6870682,79.2734299 45.9135626,79.1398072 L54.7468467,73.917873 Z M24.4486331,104.887411 C24.2267607,105.021199 23.8391803,105.004718 23.5824953,104.850086 L19.8691499,102.61107 C19.6129291,102.456438 19.585079,102.222793 19.8069514,102.089005 L23.0227084,100.150043 C23.245045,100.01577 23.6326254,100.032736 23.8888462,100.187368 L27.6021916,102.426384 C27.8588766,102.581016 27.8867267,102.814661 27.6643901,102.94845 L24.4486331,104.887411 Z M28.7331851,96.8708896 C28.9550575,96.7371012 29.3426379,96.7535824 29.5993229,96.9082146 L33.3126683,99.1472305 C33.5688891,99.3018627 33.5967392,99.5355075 33.3748668,99.6692959 L30.1591097,101.608257 C29.9367732,101.742531 29.5491928,101.725565 29.2929719,101.570932 L25.5796266,99.3319166 C25.3229416,99.1772844 25.2950915,98.9436395 25.517428,98.8098512 L28.7331851,96.8708896 Z M35.0531632,98.3297024 C34.8312908,98.4634964 34.4437104,98.4465297 34.1870254,98.291891 L30.47368,96.053265 C30.2174592,95.8986263 30.1896091,95.6644868 30.4114815,95.5311775 L33.6272386,93.5921338 C33.8495751,93.457855 34.2371556,93.4748216 34.4933764,93.6294604 L38.2067218,95.8680864 C38.4634068,96.0227251 38.4912568,96.2568646 38.2689203,96.3906586 L35.0531632,98.3297024 Z M40.7635754,95.0507457 C40.5412346,95.1845397 40.1536467,95.1675731 39.897421,95.0129344 L36.1840045,92.7743084 C35.9277788,92.6196697 35.899464,92.3855301 36.1218048,92.2522209 L39.3376235,90.3131771 C39.5595001,90.1788984 39.9475521,90.195865 40.2037779,90.3505037 L43.9171944,92.5891297 C44.1734201,92.7437685 44.2012707,92.977908 43.9793941,93.111702 L40.7635754,95.0507457 Z M46.4734264,91.7717905 C46.2515541,91.9055824 45.8639736,91.888616 45.6072886,91.7339798 L41.8939433,89.49539 C41.6377225,89.3407537 41.6098724,89.106618 41.8317448,88.9728261 L45.0475018,87.0338137 C45.2698384,86.9000218 45.6574188,86.9169882 45.9136396,87.0716244 L49.626985,89.3102143 C49.88367,89.4648505 49.9115201,89.6989863 49.6891835,89.8327781 L46.4734264,91.7717905 Z M52.183636,88.4926243 C51.9613045,88.626418 51.5737331,88.6099362 51.3175182,88.4552978 L47.6042588,86.2161922 C47.3480439,86.0615538 47.3197303,85.8278996 47.5420617,85.6941059 L50.7577443,83.7550666 C50.9800757,83.6212729 51.3676472,83.6377548 51.6238621,83.7923931 L55.3371215,86.0314987 C55.5938006,86.1861371 55.62165,86.4197913 55.3993186,86.5535851 L52.183636,88.4926243 Z M55.652377,81.295641 C55.8742494,81.161847 56.2618298,81.1788136 56.5185148,81.3334524 L60.2318602,83.5720784 C60.488081,83.7267171 60.5159311,83.9608566 60.2940587,84.0941659 L57.0783017,86.0332096 C56.8559651,86.1674884 56.4683847,86.1505217 56.2121639,85.995883 L52.4988185,83.757257 C52.2421335,83.6026183 52.2142834,83.3684788 52.43662,83.2346847 L55.652377,81.295641 Z M61.3623199,78.0168889 C61.5846565,77.8831005 61.9722369,77.8995817 62.2284577,78.0542139 L65.9418031,80.2932298 C66.1980239,80.447862 66.2263381,80.6819916 66.0040016,80.8152952 L62.7882445,82.7542568 C62.5663722,82.8885299 62.1783276,82.871564 61.9221067,82.7169318 L58.2087614,80.4779159 C57.9520764,80.3232837 57.9246905,80.0896388 58.1465629,79.9558505 L61.3623199,78.0168889 Z M30.8558752,108.984671 C30.6394957,109.120584 30.2615106,109.103841 30.0111804,108.946753 L26.3897668,106.67218 C26.1398892,106.515093 26.1127286,106.277245 26.3291081,106.141824 L34.5619393,100.971222 C34.7783188,100.834816 35.1563039,100.852052 35.4066341,101.009139 L39.0280477,103.283712 C39.2779253,103.4408 39.3050859,103.678155 39.0887064,103.814068 L30.8558752,108.984671 Z M41.5790279,102.428398 C41.3571555,102.562192 40.9695751,102.545226 40.7128901,102.390587 L36.9995448,100.151961 C36.7433239,99.9973221 36.7154738,99.7631826 36.9373462,99.6298733 L40.1531033,97.6908296 C40.3754399,97.5565508 40.7630203,97.5735174 41.0192411,97.7281562 L44.7325865,99.9667822 C44.9892715,100.121421 45.0171216,100.35556 44.794785,100.489354 L41.5790279,102.428398 Z M47.2894401,99.149443 C47.0670993,99.2832348 46.6795115,99.2662685 46.4232857,99.1116322 L42.7098692,96.8730424 C42.4536435,96.7184062 42.4253287,96.4842704 42.6476695,96.3504785 L45.8634882,94.4114661 C46.0853648,94.2776743 46.4734168,94.2946406 46.7296426,94.4492769 L50.4430591,96.6878667 C50.6992848,96.8425029 50.7271354,97.0766387 50.5052588,97.2104306 L47.2894401,99.149443 Z M52.9992912,95.8702768 C52.7774188,96.0040705 52.3898384,95.9875886 52.1331534,95.8329502 L48.419808,93.5938447 C48.1635872,93.4392063 48.1357371,93.205552 48.3576095,93.0717583 L51.5733665,91.1327191 C51.7957031,90.9989254 52.1832835,91.0154072 52.4395043,91.1700456 L56.1528497,93.4091512 C56.4095347,93.5637895 56.4373848,93.7974438 56.2150482,93.9312375 L52.9992912,95.8702768 Z M58.7095007,92.5913201 C58.4871693,92.7251138 58.0995978,92.708632 57.8433829,92.5539936 L54.1301235,90.314888 C53.8739086,90.1602496 53.845595,89.9265954 54.0679264,89.7928017 L57.283609,87.8537624 C57.5059404,87.7199687 57.8935119,87.7364506 58.1497268,87.8910889 L61.8629862,90.1301945 C62.1196653,90.2848329 62.1475147,90.5184871 61.9251833,90.6522808 L58.7095007,92.5913201 Z M62.1782417,84.5748022 C62.4001141,84.4410138 62.7876946,84.457495 63.0443796,84.6121272 L66.7577249,86.8511431 C67.0139457,87.0057753 67.0417958,87.2399049 66.8199234,87.3732085 L63.6041664,89.3121701 C63.3818298,89.4464432 62.9942494,89.4294773 62.7380286,89.2748451 L59.0246832,87.0358292 C58.7679982,86.881197 58.7401481,86.6475521 58.9624847,86.5137638 L62.1782417,84.5748022 Z M67.8881846,81.2958455 C68.1105212,81.1620572 68.4981016,81.1785384 68.7543224,81.3331705 L72.4676678,83.5721864 C72.7238886,83.7268186 72.7522029,83.9604635 72.5298663,84.0942518 L69.3141093,86.0332134 C69.0922369,86.1674865 68.7041923,86.1505206 68.4479715,85.9958884 L64.7346261,83.7568725 C64.4779411,83.6022403 64.4505552,83.3685955 64.6724276,83.2348071 L67.8881846,81.2958455 Z M36.0745942,107.527502 C36.2969307,107.393709 36.6845112,107.41019 36.940732,107.564829 L40.6540773,109.803934 C40.9102981,109.958573 40.9386124,110.192227 40.7162759,110.326021 L37.5005188,112.26506 C37.2786464,112.398854 36.8906018,112.382372 36.634381,112.227733 L32.9210357,109.988628 C32.6643507,109.833989 32.6369648,109.600335 32.8588371,109.466542 L36.0745942,107.527502 Z M41.7849145,104.248336 C42.0067869,104.114544 42.3943673,104.131511 42.6510523,104.286147 L46.3643977,106.524737 C46.6206185,106.679373 46.6484686,106.913509 46.4265962,107.0473 L43.2108392,108.986313 C42.9885026,109.120105 42.6009222,109.103138 42.3447013,108.948502 L38.631356,106.709912 C38.374671,106.555276 38.3468209,106.32114 38.5691575,106.187348 L41.7849145,104.248336 Z M63.0150549,91.9520547 C63.2364046,91.8188579 63.6222647,91.8352662 63.8773482,91.9892147 L67.574211,94.2183307 C67.8292945,94.3722791 67.8574831,94.6048909 67.6361334,94.7380877 L48.0834262,106.527452 C47.8625386,106.660649 47.4766786,106.643758 47.221595,106.490292 L43.5247323,104.261176 C43.2696487,104.107228 43.2414602,103.874616 43.4623477,103.740936 L63.0150549,91.9520547 Z M68.7041065,88.6735016 C68.9259788,88.5397079 69.3135593,88.5561897 69.5702443,88.7108281 L73.2835896,90.9499337 C73.5398104,91.1045721 73.5676605,91.3382263 73.3457882,91.47202 L70.1300311,93.4110593 C69.9076945,93.544853 69.5201141,93.5283712 69.2638933,93.3737328 L65.5505479,91.1346272 C65.2938629,90.9799888 65.2660128,90.7463346 65.4883494,90.6125409 L68.7041065,88.6735016 Z M74.4140494,85.3945449 C74.6363859,85.2607512 75.0239663,85.2772331 75.2801872,85.4318715 L78.9935325,87.670977 C79.2497533,87.8256154 79.2780676,88.0592697 79.055731,88.1930634 L75.839974,90.1321026 C75.6181016,90.2658963 75.230057,90.2494145 74.9738362,90.0947761 L71.2604908,87.8556705 C71.0038058,87.7010322 70.9764199,87.4673779 71.1982923,87.3335842 L74.4140494,85.3945449 Z M67.0726403,74.7379322 C67.2945127,74.6041439 67.6820931,74.6206251 67.9387781,74.7752573 L71.6521234,77.0142732 C71.9083443,77.1689053 71.9361944,77.403035 71.714322,77.5363386 L68.4985649,79.4753002 C68.2762283,79.6095732 67.8886479,79.5926073 67.6324271,79.4379751 L63.9190817,77.1989592 C63.6623967,77.0443271 63.6345466,76.8106822 63.8568832,76.6768938 L67.0726403,74.7379322 Z M60.5467756,70.6390319 C60.768648,70.5052379 61.1562284,70.5222046 61.4129134,70.6768433 L65.1262587,72.9154693 C65.3824796,73.070108 65.4103297,73.3042475 65.1884573,73.4375568 L61.9727002,75.3766005 C61.7503636,75.5108793 61.3627832,75.4939127 61.1065624,75.3392739 L57.393217,73.100648 C57.136532,72.9460092 57.1086819,72.7118697 57.3310185,72.5780757 L60.5467756,70.6390319 Z M73.598505,78.0168889 C73.8203774,77.8831005 74.2079578,77.8995817 74.4646428,78.0542139 L78.1779881,80.2932298 C78.434209,80.447862 78.4620591,80.6815069 78.2401867,80.8152952 L75.0244296,82.7542568 C74.8020931,82.8885299 74.4145126,82.871564 74.1582918,82.7169318 L70.4449464,80.4779159 C70.1882614,80.3232837 70.1604114,80.0896388 70.3827479,79.9558505 L73.598505,78.0168889 Z M80.1243697,82.1155883 C80.3462421,81.9817946 80.7338225,81.9982764 80.9905075,82.1529148 L84.7038529,84.3920204 C84.9600737,84.5466588 84.9879238,84.780313 84.7660514,84.9141067 L81.5502943,86.853146 C81.3279578,86.9869397 80.9403773,86.9704579 80.6841565,86.8158195 L76.9708111,84.5767139 C76.7141261,84.4220755 76.6862761,84.1884213 76.9086126,84.0546276 L80.1243697,82.1155883 Z" id="path-7"></path>
        <filter x="0.0%" y="-0.0%" width="100.0%" height="100.0%" filterUnits="objectBoundingBox" id="filter-8">
            <feOffset dx="0" dy="0" in="SourceAlpha" result="shadowOffsetOuter1"></feOffset>
            <feColorMatrix values="0 0 0 0 0.0352941176   0 0 0 0 0.290196078   0 0 0 0 0.517647059  0 0 0 0.85 0" type="matrix" in="shadowOffsetOuter1"></feColorMatrix>
        </filter>
        <linearGradient x1="50%" y1="7.99570848%" x2="50%" y2="94.0289553%" id="linearGradient-9">
            <stop stop-color="#093E92" offset="0%"></stop>
            <stop stop-color="#0A54C6" offset="100%"></stop>
        </linearGradient>
        <linearGradient x1="100%" y1="54.9880372%" x2="0%" y2="35.9838275%" id="linearGradient-10">
            <stop stop-color="#10B6F4" stop-opacity="0" offset="0%"></stop>
            <stop stop-color="#C4E3F9" offset="100%"></stop>
        </linearGradient>
        <linearGradient x1="71.312502%" y1="109.773765%" x2="0%" y2="35.9838275%" id="linearGradient-11">
            <stop stop-color="#10B6F4" stop-opacity="0" offset="0%"></stop>
            <stop stop-color="#C4E3F9" offset="100%"></stop>
        </linearGradient>
        <polygon id="path-12" points="0.349755561 0.097 10.194684 0.097 10.194684 8.9997 0.349755561 8.9997"></polygon>
        <polygon id="path-14" points="0.402450374 0.097 10.4497531 0.097 10.4497531 9 0.402450374 9"></polygon>
    </defs>
    <g id="加载" stroke="none" stroke-width="1" fill="none" fill-rule="evenodd" transform="translate(-624.000000, -165.000000)">
        <g id="加载插图" transform="translate(625.000000, 175.000000)">
            <g id="Group-2">
                <ellipse id="Oval-2" stroke="#ECF1F8" stroke-width="6" cx="95.5" cy="120.5" rx="44.5" ry="20.5"></ellipse>
                <ellipse id="Oval-2-Copy" stroke-opacity="0.5" stroke="#ECF1F8" stroke-width="4" cx="95.5" cy="122.5" rx="68.5" ry="33.5"></ellipse>
                <ellipse id="Oval-2-Copy-2" stroke-opacity="0.2" stroke="#ECF1F8" stroke-width="2" cx="95.5" cy="125.5" rx="95.5" ry="46.5"></ellipse>
                <g id="笔记本及折线图" transform="translate(38.121212, 0.000000)">
                    <g id="电脑" filter="url(#filter-1)">
                        <g id="Group-8">
                            <polygon id="Rectangle-8-Copy-4" fill="url(#linearGradient-2)" points="59.4573709 1.98929329 3.51749993 34.0598695 0.580201152 32.388615 56.4417497 0.267468098"></polygon>
                            <path d="M0.589354768,32.3737078 L3.52370949,34.0475957 L3.29379165,104.22483 C2.590161,103.498158 1.96730252,102.628192 1.42521621,101.614931 C0.883129898,100.601671 0.604509418,99.4506408 0.589354768,98.1618409 L0.589354768,32.3737078 Z" id="Rectangle-8-Copy-8" fill="url(#linearGradient-2)"></path>
                            <polygon id="Rectangle-8-Copy-7" fill="url(#linearGradient-2)" points="59.4559906 1.98505996 3.51749993 34.0561026 3.28047412 98.3882591 59.4559906 66.1463579"></polygon>
                            <g id="Rectangle-8-Copy-12">
                                <use fill="url(#linearGradient-3)" fill-rule="evenodd" xlink:href="#path-4"></use>
                                <path stroke="#1BBEEE" stroke-width="0.8748" d="M56.2922291,8.25976416 L7.61330821,36.1469051 L7.61330821,90.4299376 L56.2922291,63.4084978 L56.2922291,8.25976416 Z"></path>
                            </g>
                        </g>
                        <g id="Group-7" transform="translate(3.276575, 65.929535)">
                            <polygon id="Rectangle-8-Copy-9" fill="url(#linearGradient-5)" points="111.284677 31.8708421 55.8770153 64.2035533 0 32.0206053 55.6423383 0.0351818749"></polygon>
                            <polygon id="Rectangle-8-Copy-11" fill="url(#linearGradient-2)" points="111.288984 31.8925724 55.8770153 64.2035533 55.8770153 70.3524343 111.288984 38.2861989"></polygon>
                            <polygon id="Rectangle-8-Copy-10" fill="url(#linearGradient-2)" points="55.847828 70.4068872 55.8770153 64.2035533 3.90208542e-14 32.0206053 0 38.3291815"></polygon>
                            <polygon id="Path-13" stroke="#4BD2F8" stroke-width="0.5" fill="url(#linearGradient-6)" stroke-linecap="round" stroke-linejoin="round" points="57.3400673 40.0650562 72.7542461 49.184541 88.6370341 40.0650562 72.7542461 30.9299052"></polygon>
                        </g>
                    </g>
                    <g id="Combined-Shape">
                        <use fill="black" fill-opacity="1" filter="url(#filter-8)" xlink:href="#path-7"></use>
                        <use fill="url(#linearGradient-6)" fill-rule="evenodd" xlink:href="#path-7"></use>
                    </g>
                </g>
                <g id="Group" transform="translate(105.191919, 0.000000)" fill="url(#linearGradient-9)">
                    <polygon id="Path-70" points="0 47.0974364 0 119.751037 80 73.1106221 80 0"></polygon>
                </g>
                <path d="M46.2193552,36.094866 L106.475663,47.5403831 L106.475663,117.313276 C66.304791,100.165348 46.2193552,91.2522735 46.2193552,90.5740516 C46.2193552,89.8958297 46.2193552,71.7361012 46.2193552,36.094866 Z" id="Path-14" fill="url(#linearGradient-10)" opacity="0.685461957"></path>
                <polygon id="Path-14-Copy" fill="url(#linearGradient-11)" points="46.5243988 36.2088965 106.475663 47.5403831 185.408375 0.0177361966 93.458243 9.24708859"></polygon>
            </g>
            <g id="Page-1" transform="translate(147.676915, 60.330127) rotate(-30.000000) translate(-147.676915, -60.330127) translate(111.676915, 55.330127)">
                <polygon id="Fill-1" fill="#09DAEF" points="12.2148 1.16792 6.8458 7.68292 6.7978 7.68292 8.8688 1.16792 7.4168 1.16792 1.9638 7.68292 1.9158 7.68292 4.0718 1.16792 2.4878 1.16792 -0.0002 9.73492 1.4998 9.73492 6.8988 3.29192 6.9468 3.29192 4.8928 9.73492 6.3808 9.73492 13.7978 1.16792"></polygon>
                <polygon id="Fill-2" fill="#09DAEF" points="15.903 1.16792 10.957 9.73492 17.337 9.73492 18.03 8.53492 13.054 8.53492 14.549 5.94292 19.035 5.94292 19.727 4.74392 15.242 4.74392 16.614 2.36792 21.388 2.36792 22.08 1.16792"></polygon>
                <polygon id="Fill-3" fill="#09DAEF" points="24.8076 1.16792 19.8616 9.73492 25.8826 9.73492 26.5746 8.53492 21.9446 8.53492 26.1986 1.16792"></polygon>
                <g id="Group-14" transform="translate(29.000000, 0.903320)">
                    <g id="Group-6">
                        <mask id="mask-13" fill="white">
                            <use xlink:href="#path-12"></use>
                        </mask>
                        <g id="Clip-5"></g>
                        <path d="M9.9629,0.8887 C10.2959,1.3927 10.2659,2.0887 9.8999,2.9517 L8.5319,2.9517 C8.7129,2.3887 8.6849,1.9807 8.4419,1.7167 C8.2109,1.4527 7.7879,1.3327 7.1879,1.3327 C6.2889,1.3327 5.4429,1.6327 4.6289,2.2557 C3.8899,2.8077 3.2419,3.5767 2.6739,4.5597 C2.0919,5.5677 1.8459,6.3477 1.9419,6.8887 C2.0529,7.4637 2.5759,7.7637 3.5109,7.7637 C4.1239,7.7637 4.7159,7.6077 5.2669,7.3197 C5.8619,6.9957 6.4339,6.5037 6.9759,5.8567 L8.3429,5.8567 C7.5689,6.8637 6.6749,7.6437 5.6419,8.2077 C4.6779,8.7357 3.7329,8.9997 2.8089,8.9997 C1.3819,8.9997 0.5779,8.5437 0.3959,7.6567 C0.2269,6.8887 0.5229,5.8567 1.2709,4.5597 C2.0049,3.2877 2.9209,2.2437 4.0119,1.4527 C5.2589,0.5397 6.5589,0.0967 7.9259,0.0967 C8.9329,0.0967 9.6199,0.3607 9.9629,0.8887" id="Fill-4" fill="#09DAEF" mask="url(#mask-13)"></path>
                    </g>
                    <g id="Group-9" transform="translate(10.000000, 0.000000)">
                        <mask id="mask-15" fill="white">
                            <use xlink:href="#path-14"></use>
                        </mask>
                        <g id="Clip-8"></g>
                        <path d="M4.6978,2.2324 C3.8988,2.8084 3.2268,3.5764 2.6588,4.5604 C2.0978,5.5314 1.8828,6.2994 2.0168,6.8754 C2.1578,7.4634 2.6798,7.7634 3.5678,7.7634 C4.4558,7.7634 5.3048,7.4764 6.1108,6.9114 C6.9038,6.3474 7.5938,5.5674 8.1768,4.5604 C8.7578,3.5524 8.9748,2.7604 8.8398,2.1844 C8.6928,1.6084 8.1688,1.3324 7.2808,1.3324 C6.3928,1.3324 5.5358,1.6324 4.6978,2.2324 M10.3538,1.3684 C10.6098,2.1724 10.3528,3.2404 9.5918,4.5604 C8.8288,5.8794 7.8598,6.9354 6.6758,7.7394 C5.4358,8.5794 4.1618,9.0004 2.8538,9.0004 C1.5348,9.0004 0.7528,8.5674 0.4938,7.7284 C0.2448,6.9114 0.5068,5.8564 1.2558,4.5604 C2.0098,3.2524 2.9678,2.1954 4.1578,1.3804 C5.4018,0.5164 6.6748,0.0964 7.9938,0.0964 C9.3018,0.0964 10.0908,0.5164 10.3538,1.3684" id="Fill-7" fill="#09DAEF" mask="url(#mask-15)"></path>
                    </g>
                    <polygon id="Fill-10" fill="#09DAEF" points="26.2383 0.2642 25.2743 6.9842 25.3213 6.9842 32.1033 0.2642 33.7463 0.2642 28.8003 8.8312 27.3963 8.8312 30.8043 2.9282 30.7573 2.9282 24.8303 8.8312 23.6193 8.8312 24.5093 2.9282 24.4613 2.9282 21.0523 8.8312 19.6493 8.8312 24.5953 0.2642"></polygon>
                    <polygon id="Fill-12" fill="#09DAEF" points="42.8076 0.2642 42.1146 1.4642 37.3416 1.4642 35.9696 3.8402 40.4546 3.8402 39.7626 5.0402 35.2766 5.0402 33.7806 7.6312 38.7576 7.6312 38.0646 8.8312 31.6846 8.8312 36.6306 0.2642"></polygon>
                </g>
            </g>
        </g>
    </g>
</svg>